<svg id="visual" viewBox="0 0 900 600" width="900" height="600" xmlns="http://www.w3.org/2000/svg" xmlns:xlink="http://www.w3.org/1999/xlink" version="1.1"><rect x="0" y="0" width="900" height="600" fill="#001220"></rect><defs><linearGradient id="grad1_0" x1="33.3%" y1="0%" x2="100%" y2="100%"><stop offset="20%" stop-color="#a819d0" stop-opacity="1"></stop><stop offset="80%" stop-color="#a819d0" stop-opacity="1"></stop></linearGradient></defs><defs><linearGradient id="grad1_1" x1="33.3%" y1="0%" x2="100%" y2="100%"><stop offset="20%" stop-color="#a819d0" stop-opacity="1"></stop><stop offset="80%" stop-color="#6635ba" stop-opacity="1"></stop></linearGradient></defs><defs><linearGradient id="grad1_2" x1="33.3%" y1="0%" x2="100%" y2="100%"><stop offset="20%" stop-color="#26379a" stop-opacity="1"></stop><stop offset="80%" stop-color="#6635ba" stop-opacity="1"></stop></linearGradient></defs><defs><linearGradient id="grad1_3" x1="33.3%" y1="0%" x2="100%" y2="100%"><stop offset="20%" stop-color="#26379a" stop-opacity="1"></stop><stop offset="80%" stop-color="#002f73" stop-opacity="1"></stop></linearGradient></defs><defs><linearGradient id="grad1_4" x1="33.3%" y1="0%" x2="100%" y2="100%"><stop offset="20%" stop-color="#002249" stop-opacity="1"></stop><stop offset="80%" stop-color="#002f73" stop-opacity="1"></stop></linearGradient></defs><defs><linearGradient id="grad1_5" x1="33.3%" y1="0%" x2="100%" y2="100%"><stop offset="20%" stop-color="#002249" stop-opacity="1"></stop><stop offset="80%" stop-color="#001220" stop-opacity="1"></stop></linearGradient></defs><defs><linearGradient id="grad2_0" x1="0%" y1="0%" x2="66.7%" y2="100%"><stop offset="20%" stop-color="#a819d0" stop-opacity="1"></stop><stop offset="80%" stop-color="#a819d0" stop-opacity="1"></stop></linearGradient></defs><defs><linearGradient id="grad2_1" x1="0%" y1="0%" x2="66.7%" y2="100%"><stop offset="20%" stop-color="#6635ba" stop-opacity="1"></stop><stop offset="80%" stop-color="#a819d0" stop-opacity="1"></stop></linearGradient></defs><defs><linearGradient id="grad2_2" x1="0%" y1="0%" x2="66.7%" y2="100%"><stop offset="20%" stop-color="#6635ba" stop-opacity="1"></stop><stop offset="80%" stop-color="#26379a" stop-opacity="1"></stop></linearGradient></defs><defs><linearGradient id="grad2_3" x1="0%" y1="0%" x2="66.7%" y2="100%"><stop offset="20%" stop-color="#002f73" stop-opacity="1"></stop><stop offset="80%" stop-color="#26379a" stop-opacity="1"></stop></linearGradient></defs><defs><linearGradient id="grad2_4" x1="0%" y1="0%" x2="66.7%" y2="100%"><stop offset="20%" stop-color="#002f73" stop-opacity="1"></stop><stop offset="80%" stop-color="#002249" stop-opacity="1"></stop></linearGradient></defs><defs><linearGradient id="grad2_5" x1="0%" y1="0%" x2="66.7%" y2="100%"><stop offset="20%" stop-color="#001220" stop-opacity="1"></stop><stop offset="80%" stop-color="#002249" stop-opacity="1"></stop></linearGradient></defs><g transform="translate(900, 0)"><path d="M0 486.7C-61.5 461.3 -123 435.9 -165.3 399.1C-207.6 362.4 -230.6 314.4 -281.4 281.4C-332.2 248.5 -410.8 230.7 -449.7 186.3C-488.5 141.9 -487.6 70.9 -486.7 0L0 0Z" fill="#001b34"></path><path d="M0 405.6C-51.3 384.4 -102.5 363.2 -137.8 332.6C-173 302 -192.2 262 -234.5 234.5C-276.9 207.1 -342.4 192.2 -374.7 155.2C-407.1 118.2 -406.4 59.1 -405.6 0L0 0Z" fill="#00295e"></path><path d="M0 324.5C-41 307.5 -82 290.6 -110.2 266.1C-138.4 241.6 -153.7 209.6 -187.6 187.6C-221.5 165.7 -273.9 153.8 -299.8 124.2C-325.7 94.6 -325.1 47.3 -324.5 0L0 0Z" fill="#003487"></path><path d="M0 243.4C-30.8 230.7 -61.5 217.9 -82.7 199.6C-103.8 181.2 -115.3 157.2 -140.7 140.7C-166.1 124.2 -205.4 115.3 -224.8 93.1C-244.3 70.9 -243.8 35.5 -243.4 0L0 0Z" fill="#4738ab"></path><path d="M0 162.2C-20.5 153.8 -41 145.3 -55.1 133C-69.2 120.8 -76.9 104.8 -93.8 93.8C-110.7 82.8 -136.9 76.9 -149.9 62.1C-162.8 47.3 -162.5 23.6 -162.2 0L0 0Z" fill="#872dc7"></path><path d="M0 81.1C-10.3 76.9 -20.5 72.6 -27.6 66.5C-34.6 60.4 -38.4 52.4 -46.9 46.9C-55.4 41.4 -68.5 38.4 -74.9 31C-81.4 23.6 -81.3 11.8 -81.1 0L0 0Z" fill="#a819d0"></path></g><g transform="translate(0, 600)"><path d="M0 -486.7C70.1 -481.8 140.3 -476.8 181 -437C221.8 -397.1 233.1 -322.4 280 -280C326.9 -237.6 409.3 -227.6 449.7 -186.3C490.1 -145 488.4 -72.5 486.7 0L0 0Z" fill="#001b34"></path><path d="M0 -405.6C58.4 -401.5 116.9 -397.4 150.8 -364.2C184.8 -331 194.3 -268.7 233.3 -233.3C272.4 -198 341.1 -189.6 374.7 -155.2C408.4 -120.8 407 -60.4 405.6 0L0 0Z" fill="#00295e"></path><path d="M0 -324.5C46.8 -321.2 93.5 -317.9 120.7 -291.3C147.8 -264.8 155.4 -214.9 186.7 -186.7C217.9 -158.4 272.9 -151.7 299.8 -124.2C326.7 -96.7 325.6 -48.3 324.5 0L0 0Z" fill="#003487"></path><path d="M0 -243.4C35.1 -240.9 70.1 -238.4 90.5 -218.5C110.9 -198.6 116.6 -161.2 140 -140C163.5 -118.8 204.7 -113.8 224.8 -93.1C245 -72.5 244.2 -36.2 243.4 0L0 0Z" fill="#4738ab"></path><path d="M0 -162.2C23.4 -160.6 46.8 -158.9 60.3 -145.7C73.9 -132.4 77.7 -107.5 93.3 -93.3C109 -79.2 136.4 -75.9 149.9 -62.1C163.4 -48.3 162.8 -24.2 162.2 0L0 0Z" fill="#872dc7"></path><path d="M0 -81.1C11.7 -80.3 23.4 -79.5 30.2 -72.8C37 -66.2 38.9 -53.7 46.7 -46.7C54.5 -39.6 68.2 -37.9 74.9 -31C81.7 -24.2 81.4 -12.1 81.1 0L0 0Z" fill="#a819d0"></path></g></svg>