<svg id="visual" viewBox="0 0 900 600" width="900" height="600" xmlns="http://www.w3.org/2000/svg" xmlns:xlink="http://www.w3.org/1999/xlink" version="1.1"><rect x="0" y="0" width="900" height="600" fill="#001220"></rect><defs><linearGradient id="grad1_0" x1="33.3%" y1="0%" x2="100%" y2="100%"><stop offset="20%" stop-color="#001220" stop-opacity="1"></stop><stop offset="80%" stop-color="#001220" stop-opacity="1"></stop></linearGradient></defs><defs><linearGradient id="grad2_0" x1="0%" y1="0%" x2="66.7%" y2="100%"><stop offset="20%" stop-color="#001220" stop-opacity="1"></stop><stop offset="80%" stop-color="#001220" stop-opacity="1"></stop></linearGradient></defs><g transform="translate(900, 0)"><path d="M0 486.7C-21.7 448.7 -43.4 410.7 -72.6 411.6C-101.8 412.6 -138.4 452.7 -166.5 457.4C-194.6 462.1 -214.1 431.5 -237 410.5C-259.9 389.5 -286.3 378 -293.8 350.1C-301.2 322.2 -289.7 278 -304.1 255.2C-318.6 232.4 -359 231 -365.5 211C-371.9 191 -344.4 152.2 -352.4 128.3C-360.4 104.3 -404 95.1 -432.3 76.2C-460.7 57.3 -473.7 28.7 -486.7 0L0 0Z" fill="#241d58"></path></g><g transform="translate(0, 600)"><path d="M0 -486.7C25.7 -462.3 51.3 -437.8 74.3 -421.5C97.3 -405.2 117.7 -397.2 145.7 -400.3C173.7 -403.4 209.4 -417.6 240.5 -416.6C271.6 -415.5 298 -399.3 312.9 -372.9C327.7 -346.4 330.9 -309.7 330.9 -277.7C330.9 -245.6 327.8 -218.2 346.4 -200C365.1 -181.8 405.6 -172.9 421.9 -153.6C438.3 -134.2 430.5 -104.4 437.3 -77.1C444 -49.8 465.4 -24.9 486.7 0L0 0Z" fill="#241d58"></path></g></svg>