<svg id="visual" viewBox="0 0 960 540" width="960" height="540" xmlns="http://www.w3.org/2000/svg" xmlns:xlink="http://www.w3.org/1999/xlink" version="1.1"><rect x="0" y="0" width="960" height="540" fill="#000207"></rect><path d="M0 330L107 310L213 256L320 258L427 310L533 282L640 283L747 321L853 256L960 370L960 541L853 541L747 541L640 541L533 541L427 541L320 541L213 541L107 541L0 541Z" fill="#023f32"></path><path d="M0 401L107 353L213 345L320 311L427 330L533 354L640 372L747 353L853 329L960 344L960 541L853 541L747 541L640 541L533 541L427 541L320 541L213 541L107 541L0 541Z" fill="#014c3c"></path><path d="M0 423L107 366L213 362L320 331L427 332L533 369L640 340L747 395L853 357L960 390L960 541L853 541L747 541L640 541L533 541L427 541L320 541L213 541L107 541L0 541Z" fill="#015a47"></path><path d="M0 379L107 419L213 372L320 379L427 384L533 413L640 369L747 395L853 434L960 418L960 541L853 541L747 541L640 541L533 541L427 541L320 541L213 541L107 541L0 541Z" fill="#006852"></path><path d="M0 452L107 465L213 423L320 419L427 446L533 419L640 473L747 418L853 464L960 417L960 541L853 541L747 541L640 541L533 541L427 541L320 541L213 541L107 541L0 541Z" fill="#00765d"></path><path d="M0 454L107 470L213 482L320 492L427 473L533 491L640 469L747 470L853 457L960 482L960 541L853 541L747 541L640 541L533 541L427 541L320 541L213 541L107 541L0 541Z" fill="#008568"></path><path d="M0 488L107 498L213 507L320 515L427 480L533 497L640 494L747 475L853 498L960 498L960 541L853 541L747 541L640 541L533 541L427 541L320 541L213 541L107 541L0 541Z" fill="#009473"></path></svg>