<svg id="visual" viewBox="0 0 960 540" width="960" height="540" xmlns="http://www.w3.org/2000/svg" xmlns:xlink="http://www.w3.org/1999/xlink" version="1.1"><rect x="0" y="0" width="960" height="540" fill="#001220"></rect><path d="M0 316L22.8 326C45.7 336 91.3 356 137 359.8C182.7 363.7 228.3 351.3 274 344.7C319.7 338 365.3 337 411.2 340.7C457 344.3 503 352.7 548.8 359.5C594.7 366.3 640.3 371.7 686 366C731.7 360.3 777.3 343.7 823 333.7C868.7 323.7 914.3 320.3 937.2 318.7L960 317L960 541L937.2 541C914.3 541 868.7 541 823 541C777.3 541 731.7 541 686 541C640.3 541 594.7 541 548.8 541C503 541 457 541 411.2 541C365.3 541 319.7 541 274 541C228.3 541 182.7 541 137 541C91.3 541 45.7 541 22.8 541L0 541Z" fill="#0066ff"></path><path d="M0 430L22.8 421.8C45.7 413.7 91.3 397.3 137 385C182.7 372.7 228.3 364.3 274 366.3C319.7 368.3 365.3 380.7 411.2 383.2C457 385.7 503 378.3 548.8 375.2C594.7 372 640.3 373 686 374C731.7 375 777.3 376 823 384.7C868.7 393.3 914.3 409.7 937.2 417.8L960 426L960 541L937.2 541C914.3 541 868.7 541 823 541C777.3 541 731.7 541 686 541C640.3 541 594.7 541 548.8 541C503 541 457 541 411.2 541C365.3 541 319.7 541 274 541C228.3 541 182.7 541 137 541C91.3 541 45.7 541 22.8 541L0 541Z" fill="#007aff"></path><path d="M0 397L22.8 398.5C45.7 400 91.3 403 137 409C182.7 415 228.3 424 274 431C319.7 438 365.3 443 411.2 441.3C457 439.7 503 431.3 548.8 428.7C594.7 426 640.3 429 686 429.3C731.7 429.7 777.3 427.3 823 429.2C868.7 431 914.3 437 937.2 440L960 443L960 541L937.2 541C914.3 541 868.7 541 823 541C777.3 541 731.7 541 686 541C640.3 541 594.7 541 548.8 541C503 541 457 541 411.2 541C365.3 541 319.7 541 274 541C228.3 541 182.7 541 137 541C91.3 541 45.7 541 22.8 541L0 541Z" fill="#008cff"></path><path d="M0 480L22.8 478.5C45.7 477 91.3 474 137 469C182.7 464 228.3 457 274 454.2C319.7 451.3 365.3 452.7 411.2 458.2C457 463.7 503 473.3 548.8 478.3C594.7 483.3 640.3 483.7 686 482.5C731.7 481.3 777.3 478.7 823 477.5C868.7 476.3 914.3 476.7 937.2 476.8L960 477L960 541L937.2 541C914.3 541 868.7 541 823 541C777.3 541 731.7 541 686 541C640.3 541 594.7 541 548.8 541C503 541 457 541 411.2 541C365.3 541 319.7 541 274 541C228.3 541 182.7 541 137 541C91.3 541 45.7 541 22.8 541L0 541Z" fill="#2b9dfc"></path><path d="M0 510L22.8 507.2C45.7 504.3 91.3 498.7 137 499C182.7 499.3 228.3 505.7 274 507.7C319.7 509.7 365.3 507.3 411.2 501.7C457 496 503 487 548.8 483C594.7 479 640.3 480 686 485.2C731.7 490.3 777.3 499.7 823 498.5C868.7 497.3 914.3 485.7 937.2 479.8L960 474L960 541L937.2 541C914.3 541 868.7 541 823 541C777.3 541 731.7 541 686 541C640.3 541 594.7 541 548.8 541C503 541 457 541 411.2 541C365.3 541 319.7 541 274 541C228.3 541 182.7 541 137 541C91.3 541 45.7 541 22.8 541L0 541Z" fill="#4facf7"></path></svg>