<svg id="visual" viewBox="0 0 900 600" width="900" height="600" xmlns="http://www.w3.org/2000/svg" xmlns:xlink="http://www.w3.org/1999/xlink" version="1.1"><rect x="0" y="0" width="900" height="600" fill="#140021"></rect><path d="M0 402L43 402L43 425L86 425L86 405L129 405L129 425L171 425L171 414L214 414L214 388L257 388L257 416L300 416L300 367L343 367L343 360L386 360L386 331L429 331L429 416L471 416L471 370L514 370L514 400L557 400L557 400L600 400L600 376L643 376L643 383L686 383L686 348L729 348L729 386L771 386L771 357L814 357L814 412L857 412L857 401L900 401L900 337L900 601L900 601L857 601L857 601L814 601L814 601L771 601L771 601L729 601L729 601L686 601L686 601L643 601L643 601L600 601L600 601L557 601L557 601L514 601L514 601L471 601L471 601L429 601L429 601L386 601L386 601L343 601L343 601L300 601L300 601L257 601L257 601L214 601L214 601L171 601L171 601L129 601L129 601L86 601L86 601L43 601L43 601L0 601Z" fill="#09c3d6"></path><path d="M0 367L43 367L43 391L86 391L86 366L129 366L129 402L171 402L171 374L214 374L214 396L257 396L257 366L300 366L300 407L343 407L343 427L386 427L386 383L429 383L429 392L471 392L471 408L514 408L514 395L557 395L557 373L600 373L600 387L643 387L643 446L686 446L686 375L729 375L729 399L771 399L771 445L814 445L814 386L857 386L857 417L900 417L900 384L900 601L900 601L857 601L857 601L814 601L814 601L771 601L771 601L729 601L729 601L686 601L686 601L643 601L643 601L600 601L600 601L557 601L557 601L514 601L514 601L471 601L471 601L429 601L429 601L386 601L386 601L343 601L343 601L300 601L300 601L257 601L257 601L214 601L214 601L171 601L171 601L129 601L129 601L86 601L86 601L43 601L43 601L0 601Z" fill="#00b4de"></path><path d="M0 440L43 440L43 393L86 393L86 402L129 402L129 414L171 414L171 427L214 427L214 451L257 451L257 407L300 407L300 464L343 464L343 401L386 401L386 469L429 469L429 404L471 404L471 432L514 432L514 406L557 406L557 439L600 439L600 413L643 413L643 427L686 427L686 396L729 396L729 465L771 465L771 463L814 463L814 468L857 468L857 466L900 466L900 446L900 601L900 601L857 601L857 601L814 601L814 601L771 601L771 601L729 601L729 601L686 601L686 601L643 601L643 601L600 601L600 601L557 601L557 601L514 601L514 601L471 601L471 601L429 601L429 601L386 601L386 601L343 601L343 601L300 601L300 601L257 601L257 601L214 601L214 601L171 601L171 601L129 601L129 601L86 601L86 601L43 601L43 601L0 601Z" fill="#00a3e3"></path><path d="M0 443L43 443L43 459L86 459L86 467L129 467L129 442L171 442L171 465L214 465L214 476L257 476L257 466L300 466L300 445L343 445L343 478L386 478L386 473L429 473L429 463L471 463L471 464L514 464L514 440L557 440L557 473L600 473L600 461L643 461L643 479L686 479L686 470L729 470L729 487L771 487L771 474L814 474L814 453L857 453L857 485L900 485L900 487L900 601L900 601L857 601L857 601L814 601L814 601L771 601L771 601L729 601L729 601L686 601L686 601L643 601L643 601L600 601L600 601L557 601L557 601L514 601L514 601L471 601L471 601L429 601L429 601L386 601L386 601L343 601L343 601L300 601L300 601L257 601L257 601L214 601L214 601L171 601L171 601L129 601L129 601L86 601L86 601L43 601L43 601L0 601Z" fill="#0090e2"></path><path d="M0 509L43 509L43 518L86 518L86 457L129 457L129 501L171 501L171 482L214 482L214 489L257 489L257 512L300 512L300 487L343 487L343 499L386 499L386 466L429 466L429 470L471 470L471 474L514 474L514 497L557 497L557 504L600 504L600 491L643 491L643 479L686 479L686 511L729 511L729 462L771 462L771 493L814 493L814 494L857 494L857 503L900 503L900 516L900 601L900 601L857 601L857 601L814 601L814 601L771 601L771 601L729 601L729 601L686 601L686 601L643 601L643 601L600 601L600 601L557 601L557 601L514 601L514 601L471 601L471 601L429 601L429 601L386 601L386 601L343 601L343 601L300 601L300 601L257 601L257 601L214 601L214 601L171 601L171 601L129 601L129 601L86 601L86 601L43 601L43 601L0 601Z" fill="#387ad9"></path><path d="M0 531L43 531L43 512L86 512L86 530L129 530L129 523L171 523L171 492L214 492L214 531L257 531L257 522L300 522L300 509L343 509L343 484L386 484L386 531L429 531L429 518L471 518L471 495L514 495L514 512L557 512L557 500L600 500L600 510L643 510L643 506L686 506L686 499L729 499L729 529L771 529L771 519L814 519L814 539L857 539L857 496L900 496L900 488L900 601L900 601L857 601L857 601L814 601L814 601L771 601L771 601L729 601L729 601L686 601L686 601L643 601L643 601L600 601L600 601L557 601L557 601L514 601L514 601L471 601L471 601L429 601L429 601L386 601L386 601L343 601L343 601L300 601L300 601L257 601L257 601L214 601L214 601L171 601L171 601L129 601L129 601L86 601L86 601L43 601L43 601L0 601Z" fill="#6760c7"></path><path d="M0 522L43 522L43 558L86 558L86 542L129 542L129 532L171 532L171 556L214 556L214 562L257 562L257 546L300 546L300 549L343 549L343 541L386 541L386 558L429 558L429 533L471 533L471 518L514 518L514 537L557 537L557 543L600 543L600 521L643 521L643 535L686 535L686 522L729 522L729 558L771 558L771 543L814 543L814 516L857 516L857 562L900 562L900 523L900 601L900 601L857 601L857 601L814 601L814 601L771 601L771 601L729 601L729 601L686 601L686 601L643 601L643 601L600 601L600 601L557 601L557 601L514 601L514 601L471 601L471 601L429 601L429 601L386 601L386 601L343 601L343 601L300 601L300 601L257 601L257 601L214 601L214 601L171 601L171 601L129 601L129 601L86 601L86 601L43 601L43 601L0 601Z" fill="#8642ab"></path><path d="M0 584L43 584L43 569L86 569L86 553L129 553L129 579L171 579L171 555L214 555L214 573L257 573L257 561L300 561L300 561L343 561L343 553L386 553L386 569L429 569L429 556L471 556L471 552L514 552L514 560L557 560L557 551L600 551L600 555L643 555L643 585L686 585L686 584L729 584L729 556L771 556L771 559L814 559L814 558L857 558L857 575L900 575L900 562L900 601L900 601L857 601L857 601L814 601L814 601L771 601L771 601L729 601L729 601L686 601L686 601L643 601L643 601L600 601L600 601L557 601L557 601L514 601L514 601L471 601L471 601L429 601L429 601L386 601L386 601L343 601L343 601L300 601L300 601L257 601L257 601L214 601L214 601L171 601L171 601L129 601L129 601L86 601L86 601L43 601L43 601L0 601Z" fill="#991186"></path></svg>